<?xml version="1.0" encoding="utf-8"?>
<!-- Generator: Adobe Illustrator 25.0.0, SVG Export Plug-In . SVG Version: 6.00 Build 0)  -->
<svg version="1.1" id="Camada_1" xmlns="http://www.w3.org/2000/svg" xmlns:xlink="http://www.w3.org/1999/xlink" x="0px" y="0px"
	 viewBox="0 0 500 250" style="enable-background:new 0 0 500 250;" xml:space="preserve">
<style type="text/css">
	.st0{fill:url(#SVGID_1_);}
	.st1{fill:url(#SVGID_2_);}
	.st2{fill:url(#SVGID_3_);}
	.st3{fill:url(#SVGID_4_);}
	.st4{fill:url(#SVGID_5_);}
	.st5{fill:url(#SVGID_6_);}
</style>
<g id="Camada_2_1_">
	<g id="Camada_1-2">
		
			<linearGradient id="SVGID_1_" gradientUnits="userSpaceOnUse" x1="-1185.4685" y1="1061.7319" x2="-1247.192" y2="914.7759" gradientTransform="matrix(0.14 0.99 -0.97 0.27 1257.0265 1096.0601)">
			<stop  offset="0" style="stop-color:#00D7BE"/>
			<stop  offset="1" style="stop-color:#1F93FF"/>
		</linearGradient>
		<path class="st0" d="M66.2,224.5l0.6-0.4L205.9,126l-6.6-38.5L44.2,196.9c-1,0.6-1.3,0.5-1.6,0.4L66.2,224.5z"/>
		
			<linearGradient id="SVGID_2_" gradientUnits="userSpaceOnUse" x1="-1078.9883" y1="781.3679" x2="-1201.3925" y2="633.6486" gradientTransform="matrix(0.14 0.99 -0.97 0.27 1257.0165 1096.01)">
			<stop  offset="0" style="stop-color:#FF3DC8"/>
			<stop  offset="1" style="stop-color:#FF8EA3"/>
		</linearGradient>
		<path class="st1" d="M499.5,67L499.5,67c1.9,11-1.9,22.3-10.7,32.2L369.5,233c-11.4,12.7-28.3,18.8-45.1,16.4l11.3-35.4
			c1.1,0.2,2.3-0.2,3-1.1L458.1,79.2c1.5-1.6,1.3-2.5,1.2-2.9L499.5,67z"/>
		
			<linearGradient id="SVGID_3_" gradientUnits="userSpaceOnUse" x1="-1260.2946" y1="905.5863" x2="-1162.572" y2="686.8182" gradientTransform="matrix(0.14 0.99 -0.97 0.27 1257.0265 1096.0601)">
			<stop  offset="0" style="stop-color:#FFD500"/>
			<stop  offset="1" style="stop-color:#EC6047"/>
		</linearGradient>
		<path class="st2" d="M233.8,189.9c-11.2-3.5-19.1-12-20.9-22.6l-7-41.2l-6.6-38.5l-8.5-49.7c-0.1-0.5,9.3-37.2,9.3-37.2
			c16.6,2.5,28.4,13.2,30.9,27.9l5.6,32.7l6.6,38.6l9.2,54l26.6-17l6.4,37.6l-16.3,10.4H269C258.5,191.4,245.7,193.3,233.8,189.9z"
			/>
		
			<linearGradient id="SVGID_4_" gradientUnits="userSpaceOnUse" x1="-1287.4113" y1="900.7329" x2="-1181.8707" y2="664.4678" gradientTransform="matrix(0.14 0.99 -0.97 0.27 1257.0265 1096.0601)">
			<stop  offset="0" style="stop-color:#2F86D9"/>
			<stop  offset="1" style="stop-color:#FF8EA3"/>
		</linearGradient>
		<path class="st3" d="M317.7,118.4l113.8-72.6l0.2-0.1c13.2-8.3,28.6-10.6,42-6.4s23.6,14.9,25.8,27.8l-40.2,9.3
			c-0.4-1.5-1.6-2.7-3.1-3.2c-1.3-0.4-2.7-0.1-3.7,0.8l-128.4,81.9L317.7,118.4z"/>
		
			<linearGradient id="SVGID_5_" gradientUnits="userSpaceOnUse" x1="-1242.7272" y1="832.0201" x2="-1104.0729" y2="792.987" gradientTransform="matrix(0.14 0.99 -0.97 0.27 1257.0265 1096.0601)">
			<stop  offset="0" style="stop-color:#1F93FF"/>
			<stop  offset="1" style="stop-color:#FF3DC8"/>
		</linearGradient>
		<path class="st4" d="M293.5,221.5l-7.1-41.5l-6.4-37.6L270.6,87l-26.3,18.6L237.7,67l15.4-11l0.6-0.4c10.3-6.9,23.1-9,35.1-5.7
			c11.4,3.4,19.3,11.8,21.1,22.4l7.8,46l6.4,37.6l9.6,56.2c0,0.5,0.3,1.6,2,1.9l-11.3,35.4C307.8,246.9,295.9,236.3,293.5,221.5z"/>
		
			<linearGradient id="SVGID_6_" gradientUnits="userSpaceOnUse" x1="300.5248" y1="164.9227" x2="127.5104" y2="399.8902" gradientTransform="matrix(-1 0 0 -1 317.58 392.9851)">
			<stop  offset="0" style="stop-color:#00D7BE"/>
			<stop  offset="0.12" style="stop-color:#17D7AD"/>
			<stop  offset="0.37" style="stop-color:#53D680"/>
			<stop  offset="0.73" style="stop-color:#B2D539"/>
			<stop  offset="1" style="stop-color:#FFD400"/>
		</linearGradient>
		<path class="st5" d="M0.4,204.8c2.1,12.5,11.8,22.7,25.2,26.7c13.4,4,27.9,1.4,40.6-6.9l-23.6-27.2c-0.9-0.3-1.6-1-1.9-1.9
			c0-0.1,0-0.4,0.7-1.3L185.9,37c0.7-0.9,1.9-1.3,3-1.1c1.8,0.3,1.9,1.4,2,1.9l9.3-37.2c-16.8-2.4-33.6,3.6-45,16.2L10.6,174
			C2.3,183.3-1.3,194.2,0.4,204.8z"/>
	</g>
</g>
</svg>
